<svg width="18" height="18" viewBox="0 0 18 18" fill="none" xmlns="http://www.w3.org/2000/svg">
<path d="M9.00001 0C4.03742 0 2.41879e-05 3.79693 2.41879e-05 8.4641C2.41879e-05 10.0958 0.494124 11.6761 1.43042 13.0422C1.25312 15.0915 0.777923 16.6128 0.0879241 17.3335C-0.0032758 17.4288 -0.0260758 17.5746 0.0315241 17.695C0.0828241 17.8025 0.187524 17.8687 0.300024 17.8687C0.313824 17.8687 0.327924 17.8677 0.342024 17.8655C0.463524 17.8476 3.28592 17.4229 5.32712 16.1921C6.48662 16.6809 7.72141 16.9282 9.00001 16.9282C13.9626 16.9282 18 13.1313 18 8.4641C18 3.79693 13.9626 0 9.00001 0Z" fill="white"/>
</svg>
