<svg width="43" height="43" viewBox="0 0 43 43" fill="none" xmlns="http://www.w3.org/2000/svg">
<path fill-rule="evenodd" clip-rule="evenodd" d="M29.5086 0.115234H13.4908C6.11991 0.115234 0.142578 6.11638 0.142578 13.5166V29.5983C0.142578 36.9986 6.11991 42.9997 13.4908 42.9997H29.5086C36.8795 42.9997 42.8569 36.9986 42.8569 29.5983V13.5166C42.8569 6.11638 36.8795 0.115234 29.5086 0.115234ZM38.8524 29.5983C38.8524 34.7712 34.6611 38.9793 29.5086 38.9793H13.4908C8.33838 38.9793 4.14704 34.7712 4.14704 29.5983V13.5166C4.14704 8.34369 8.33838 4.13565 13.4908 4.13565H29.5086C34.6611 4.13565 38.8524 8.34369 38.8524 13.5166V29.5983ZM21.4997 10.8362C15.6025 10.8362 10.8211 15.6366 10.8211 21.5574C10.8211 27.4781 15.6025 32.2785 21.4997 32.2785C27.397 32.2785 32.1783 27.4781 32.1783 21.5574C32.1783 15.6366 27.397 10.8362 21.4997 10.8362ZM21.4997 28.258C17.821 28.258 14.8256 25.2508 14.8256 21.5574C14.8256 17.8612 17.821 14.8567 21.4997 14.8567C25.1785 14.8567 28.1738 17.8612 28.1738 21.5574C28.1738 25.2508 25.1785 28.258 21.4997 28.258ZM34.402 10.0317C34.402 10.8207 33.765 11.4603 32.9791 11.4603C32.1933 11.4603 31.5562 10.8207 31.5562 10.0317C31.5562 9.24275 32.1933 8.60315 32.9791 8.60315C33.765 8.60315 34.402 9.24275 34.402 10.0317Z" fill="white"/>
</svg>
