<svg width="18" height="18" viewBox="0 0 18 18" fill="none" xmlns="http://www.w3.org/2000/svg">
<path d="M15.1502 10.7298C14.7573 10.3226 14.2835 10.1048 13.7814 10.1048C13.2833 10.1048 12.8054 10.3185 12.3964 10.7258L11.1167 11.996C11.0114 11.9395 10.9061 11.8871 10.8049 11.8347C10.6591 11.7621 10.5214 11.6935 10.404 11.621C9.20529 10.8629 8.11594 9.875 7.07113 8.59677C6.56493 7.95968 6.22476 7.42339 5.97773 6.87903C6.3098 6.57661 6.61757 6.2621 6.91725 5.95968C7.03064 5.84677 7.14403 5.72984 7.25742 5.61693C8.10784 4.77016 8.10784 3.67339 7.25742 2.82661L6.15187 1.72581C6.02633 1.60081 5.89674 1.47177 5.77525 1.34274C5.53227 1.09274 5.27714 0.834677 5.01392 0.592742C4.6211 0.205645 4.15134 0 3.65729 0C3.16323 0 2.68538 0.205645 2.28041 0.592742C2.27636 0.596774 2.27636 0.596774 2.27231 0.600806L0.895435 1.98387C0.377081 2.5 0.0814579 3.12903 0.0166637 3.85887C-0.0805277 5.03629 0.267741 6.13306 0.535017 6.85081C1.19106 8.6129 2.17107 10.246 3.63299 11.996C5.40673 14.1048 7.54089 15.7702 9.97877 16.9435C10.9102 17.3831 12.1534 17.9032 13.5425 17.9919C13.6275 17.996 13.7166 18 13.7976 18C14.733 18 15.5187 17.6653 16.1342 17C16.1383 16.9919 16.1464 16.9879 16.1504 16.9798C16.361 16.7258 16.604 16.496 16.8591 16.25C17.0332 16.0847 17.2114 15.9113 17.3856 15.7298C17.7865 15.3145 17.9971 14.8306 17.9971 14.3347C17.9971 13.8347 17.7824 13.3548 17.3734 12.9516L15.1502 10.7298ZM16.5999 14.9758C16.5959 14.9758 16.5959 14.9798 16.5999 14.9758C16.442 15.1452 16.28 15.2984 16.1059 15.4677C15.8427 15.7177 15.5754 15.9798 15.3243 16.2742C14.9153 16.7097 14.4334 16.9153 13.8016 16.9153C13.7409 16.9153 13.6761 16.9153 13.6153 16.9113C12.4126 16.8347 11.2949 16.3669 10.4566 15.9677C8.16454 14.8629 6.15187 13.2944 4.47937 11.3065C3.09844 9.64919 2.17512 8.11693 1.56363 6.47177C1.18701 5.46774 1.04932 4.68548 1.11007 3.94758C1.15056 3.47581 1.3328 3.08468 1.66892 2.75L3.04984 1.375C3.24828 1.18952 3.45886 1.08871 3.66539 1.08871C3.92052 1.08871 4.12705 1.24194 4.25664 1.37097C4.26068 1.375 4.26473 1.37903 4.26878 1.38306C4.51581 1.6129 4.75069 1.85081 4.99772 2.10484C5.12326 2.23387 5.25285 2.3629 5.38243 2.49597L6.48799 3.59677C6.91725 4.02419 6.91725 4.41935 6.48799 4.84677C6.37055 4.96371 6.25716 5.08064 6.13972 5.19355C5.79955 5.54032 5.47558 5.8629 5.12326 6.17742C5.11516 6.18548 5.10706 6.18952 5.10301 6.19758C4.75474 6.54435 4.81953 6.88306 4.89243 7.1129C4.89648 7.125 4.90053 7.1371 4.90458 7.14919C5.1921 7.84274 5.59706 8.49597 6.21261 9.27419L6.21666 9.27823C7.33436 10.6492 8.5128 11.7177 9.81274 12.5363C9.97877 12.6411 10.1489 12.7258 10.3108 12.8065C10.4566 12.879 10.5943 12.9476 10.7118 13.0202C10.728 13.0282 10.7442 13.0403 10.7604 13.0484C10.898 13.1169 11.0276 13.1492 11.1613 13.1492C11.4974 13.1492 11.708 12.9395 11.7768 12.871L13.1618 11.4919C13.2995 11.3548 13.5182 11.1895 13.7733 11.1895C14.0244 11.1895 14.2309 11.3468 14.3564 11.4839C14.3605 11.4879 14.3605 11.4879 14.3645 11.4919L16.5959 13.7137C17.013 14.125 17.013 14.5484 16.5999 14.9758Z" fill="#69B0F8"/>
</svg>
